<svg width="98" height="84" viewBox="0 0 98 84" version="1.1" xmlns="http://www.w3.org/2000/svg" xmlns:xlink="http://www.w3.org/1999/xlink">
<title>Group 5</title>
<desc>Created using Figma</desc>
<g id="Canvas" transform="translate(-7623 -130)">
<g id="Group 5">
<g id="Vector">
<use xlink:href="#path0_fill" transform="translate(7623 130)" fill="#FFFFFF"/>
</g>
</g>
</g>
<defs>
<path id="path0_fill" d="M 93.6014 38.6992L 97.703 32.5L 48.5 3.23486e-07L -1.77383e-08 32.5L 4.1016 38.6992L 13.8008 32.1992L 13.8008 83.3012L 84.1018 83.3012L 84.1018 32.5002L 93.6014 38.6992ZM 36.6014 39.6992C 36.6014 39.6992 43.703 33.6992 48.9994 41.8984C 54.3002 33.6992 61.3974 39.6992 61.3974 39.6992C 66.2958 44.1992 61.3974 50.1992 61.3974 50.1992C 59.499 53.5976 49.7954 62.8012 48.9994 63.5972L 48.8978 63.4956C 47.6986 62.394 38.3978 53.4956 36.4998 50.1946C 36.6014 50.1985 31.6014 44.1985 36.6014 39.6986L 36.6014 39.6992Z"/>
</defs>
</svg>
