<svg width="95" height="76" viewBox="0 0 95 76" version="1.1" xmlns="http://www.w3.org/2000/svg" xmlns:xlink="http://www.w3.org/1999/xlink">
<title>specific-missionary</title>
<desc>Created using Figma</desc>
<g id="Canvas" transform="translate(-8067 -137)">
<g id="specific-missionary">
<g id="Group">
<g id="Vector">
<use xlink:href="#path0_fill" transform="translate(8067 137)" fill="#FFFFFF"/>
</g>
<g id="Vector">
<use xlink:href="#path1_fill" transform="translate(8120.21 200.314)" fill="#FFFFFF"/>
</g>
<g id="Vector">
<use xlink:href="#path2_fill" transform="translate(8123.35 199.912)" fill="#FFFFFF"/>
</g>
<g id="Vector">
<use xlink:href="#path3_fill" transform="translate(8126.46 201.479)" fill="#FFFFFF"/>
</g>
<g id="Vector">
<use xlink:href="#path4_fill" transform="translate(8121.11 189.844)" fill="#FFFFFF"/>
</g>
<g id="Vector">
<use xlink:href="#path5_fill" transform="translate(8133.16 186.894)" fill="#FFFFFF"/>
</g>
<g id="Vector">
<use xlink:href="#path6_fill" transform="translate(8129.54 188.222)" fill="#FFFFFF"/>
</g>
</g>
</g>
</g>
<defs>
<path id="path0_fill" d="M 94.7582 26.6577C 94.7582 26.6577 94.9691 17.7467 86.1744 17.0092L 84.3064 17.0092L 84.3064 15.6182L 78.6543 15.6182L 78.6543 17.0092L 67.5214 17.0092L 67.5214 4.2612C 67.5214 4.2612 67.2885 0.0794698 63.8339 -1.17294e-07L 31.1784 -1.17294e-07C 28.2733 -1.17294e-07 27.8821 2.99827 27.8821 2.99827L 27.8821 16.2459L 17.7468 16.1973L 17.7468 14.8241L 12.0947 14.8241L 12.0947 16.1709L 11.3212 16.1709C -0.923953 16.4844 0.0166823 26.8968 0.0166823 26.8968L 0.0166823 65.4595C 0.407855 75.1566 10.6134 76 10.6134 76L 85.1249 76C 85.1249 76 94.2009 75.788 94.7547 67.7425C 95.3041 59.7013 94.7591 26.6577 94.7591 26.6577L 94.7582 26.6577ZM 62.1027 6.78683L 62.1027 16.7224L 33.2963 16.7224C 33.2963 16.7224 33.1425 8.52228 33.2963 6.54842C 33.4502 4.57896 35.8851 4.73349 35.8851 4.73349L 60.8456 4.73349C 62.34 4.73349 62.1027 6.78683 62.1027 6.78683ZM 62.4543 31.9832L 62.4587 31.9656L 76.9057 38.9646L 82.8084 41.8305C 79.7582 44.471 75.2136 42.5016 75.2136 42.5016L 60.7665 35.4982L 60.7753 35.485C 58.481 34.2574 56.9999 32.628 57.4395 31.7139C 57.8746 30.7955 60.0633 30.9412 62.4543 31.9833L 62.4543 31.9832ZM 79.8369 39.4282C 83.9859 36.2576 86.1834 37.9313 86.1834 37.9313L 83.3134 41.115L 79.8369 39.4282ZM 70.5367 34.9196C 76.1933 30.9322 77.6174 31.0824 77.6174 31.0824L 79.0941 31.7977L 74.4397 36.814L 70.5367 34.9196ZM 67.3766 67.9624C 67.2492 69.0134 66.291 69.7552 65.2494 69.6272L 47.6384 67.4149C 46.5923 67.2825 45.854 66.3243 45.9858 65.2777L 46.4121 61.8378C 46.5439 60.7868 47.4933 60.045 48.5393 60.173L 66.1503 62.3853C 67.192 62.5133 67.9347 63.4804 67.803 64.5269L 67.3766 67.9624ZM 76.9889 54.2604C 77.1251 55.2804 76.2856 56.2254 75.1298 56.3755L 55.5272 58.9588C 54.367 59.1134 53.312 58.4157 53.1803 57.4L 52.7451 54.075C 52.6089 53.0593 53.444 52.1143 54.6042 51.9598L 74.2113 49.3721C 75.3715 49.2131 76.422 49.9197 76.5538 50.9309L 76.9889 54.2604ZM 16.947 25.8535C 16.9206 25.8094 16.8898 25.7564 16.8503 25.7122C 16.7799 25.6371 16.6437 25.5753 16.6305 25.4914C 16.5997 25.2618 16.4151 25.1691 16.2965 25.0145C 16.1778 24.86 15.9097 24.9262 15.8614 24.6922C 15.8614 24.6877 15.7734 24.6877 15.7427 24.7054C 15.6987 24.7319 15.6724 24.7805 15.6284 24.8202C 15.6064 24.8423 15.5669 24.8599 15.5361 24.8776C 15.5317 24.8379 15.5141 24.7937 15.5273 24.7584C 15.5449 24.7098 15.5845 24.6701 15.6108 24.6303C 15.5493 24.6392 15.479 24.6392 15.435 24.6701C 15.3867 24.7054 15.3251 24.7849 15.3295 24.8246C 15.3515 24.9041 15.3471 25.0233 15.4834 25.0322C 15.5581 25.0366 15.6328 25.0763 15.7031 25.0675C 15.9449 25.0189 16.0723 25.1602 16.1866 25.3324C 16.2393 25.4075 16.3404 25.4958 16.3272 25.5621C 16.2965 25.7519 16.402 25.7519 16.5294 25.7564C 16.6481 25.7608 16.7668 25.7608 16.8019 25.9153C 16.8063 25.933 16.8547 25.9551 16.8679 25.9506C 16.903 25.9374 16.9162 25.9021 16.947 25.8535L 16.947 25.8535ZM 15.3955 37.8644C 15.4614 37.8865 15.5317 37.8777 15.6064 37.8865C 15.3515 37.9218 15.0966 37.9969 14.8373 38.0057C 13.0001 38.0808 11.3563 37.5288 9.95433 36.3365C 8.70608 35.2723 7.9062 33.9255 7.58969 32.3049C 7.33038 30.9581 7.44465 29.6776 7.90175 28.4721C 7.90175 28.4721 8.05558 28.004 8.34566 27.5094C 8.43795 27.3416 8.53465 27.1782 8.64013 27.0149C 8.9478 26.5335 9.33017 26.114 9.7521 25.7299C 9.79166 25.6946 9.88835 25.6548 9.90594 25.6725C 9.98944 25.752 9.90154 25.8005 9.8488 25.8491C 9.7609 25.9286 9.6598 25.9904 9.57191 26.0699C 9.51477 26.1185 9.44885 26.1759 9.43126 26.2421C 9.41368 26.3128 9.44005 26.3967 9.44884 26.4806C 9.51038 26.4452 9.56752 26.4187 9.62465 26.379C 9.6686 26.3481 9.70816 26.3084 9.74332 26.2686C 9.9411 26.0037 10.1477 26.0434 10.4553 26.2951C 10.4949 26.3304 10.5388 26.3525 10.5784 26.379C 10.6136 26.4055 10.6707 26.4408 10.6707 26.4673C 10.6531 26.8029 10.741 27.1385 10.6619 27.4741C 10.6531 27.5183 10.6795 27.5713 10.7015 27.6154C 10.7454 27.7126 10.807 27.8053 10.8333 27.9069C 10.8465 27.9554 10.8026 28.0217 10.785 28.0791C 10.5476 27.9819 10.6355 28.1939 10.6004 28.2778C 10.5257 28.4897 10.429 28.6973 10.3762 28.9048C 10.3762 28.9048 10.2927 29.3111 10.3455 29.6952C 10.3806 29.841 10.4553 29.9779 10.596 30.0971C 10.6487 30.1412 10.6575 30.2296 10.6839 30.2958C 10.7147 30.3974 10.7366 30.5033 10.7674 30.6093C 10.7718 30.6314 10.8114 30.6491 10.8333 30.6667C 10.8377 30.6491 10.8509 30.6314 10.8553 30.6093C 10.8597 30.5917 10.8509 30.5652 10.8597 30.5475C 10.8817 30.5077 10.908 30.468 10.9344 30.4283C 10.9608 30.4592 11.0003 30.4813 11.0179 30.5166C 11.119 30.7153 11.2113 30.9184 11.3168 31.1171C 11.3607 31.201 11.4267 31.2717 11.4662 31.36C 11.5322 31.488 11.6201 31.6249 11.6332 31.7618C 11.6464 31.9517 11.7519 32.0533 11.9013 32.1239C 12.1563 32.2431 12.3848 32.4551 12.7057 32.3624C 12.7144 32.3624 12.732 32.3624 12.732 32.3668C 12.9782 32.6715 13.4616 32.6052 13.6638 32.985C 13.7561 33.1528 13.9539 33.2279 14.1429 33.2764C 14.1692 33.2809 14.222 33.2102 14.2615 33.1749C 14.3275 33.1705 14.3934 33.1705 14.4637 33.166C 14.4901 33.2455 14.5209 33.3294 14.5472 33.4089C 14.6219 33.6076 14.6088 33.7798 14.4417 33.9344C 14.3714 33.9918 14.3143 34.0713 14.2615 34.1463C 14.1956 34.2479 14.1824 34.3451 14.3143 34.4069C 14.2659 34.4819 14.2088 34.5526 14.178 34.6365C 14.1648 34.6718 14.2044 34.7336 14.2352 34.769C 14.3275 34.8926 14.4242 35.0163 14.5252 35.1443C 14.6439 35.29 14.7406 35.502 14.8944 35.5638C 15.2856 35.7272 15.4219 35.9745 15.3296 36.3851C 15.29 36.5573 15.312 36.7428 15.2988 36.9239C 15.2988 36.9636 15.3032 37.021 15.2768 37.0475C 15.0614 37.286 15.334 37.52 15.2856 37.7673C 15.2768 37.7938 15.3471 37.8468 15.3955 37.8644L 15.3955 37.8644ZM 15.6196 37.8821L 15.6108 37.8821L 15.6196 37.8821ZM 21.5179 30.755C 21.3773 30.6314 21.3334 30.4945 21.3202 30.3444C 21.3114 30.2207 21.2235 30.1986 21.1356 30.2295C 20.9114 30.3179 20.7048 30.4194 20.6829 30.7109C 20.6741 30.8168 20.5994 30.9228 20.5422 31.0244C 20.3884 31.2717 20.2302 31.5013 20.2873 31.8236C 20.3093 31.9429 20.2653 32.0798 20.2258 32.2034C 20.1774 32.3535 20.1818 32.486 20.2829 32.6273C 20.3664 32.7377 20.4236 32.8658 20.4895 32.985C 20.5422 33.0777 20.6082 33.0866 20.6961 33.0292C 20.7752 32.9762 20.8631 32.932 20.9378 32.8746C 20.9949 32.8349 21.0257 32.8039 21.1004 32.8613C 21.1575 32.9055 21.1839 32.9276 21.1619 33.0071C 21.0696 33.3603 20.9861 33.7092 20.8191 34.0404C 19.7994 36.0407 18.2084 37.3124 16.0284 37.838C 15.8965 37.8733 15.7559 37.8689 15.6197 37.8865C 15.7427 37.5068 15.9845 37.2639 16.3624 37.1668C 16.4503 37.1359 16.5382 37.1049 16.4591 36.9857C 16.4547 36.9769 16.4987 36.9151 16.5207 36.9151C 16.9074 36.9195 17.0701 36.5839 17.2371 36.3498C 17.3909 36.1291 17.5579 35.9789 17.7777 35.8862C 17.9315 35.8244 18.0326 35.7228 18.0897 35.5859C 18.2172 35.2724 18.3227 34.9589 18.5688 34.6983C 18.6919 34.5703 18.6303 34.4864 18.4985 34.3539C 18.2699 34.1287 17.9271 34.323 17.6986 34.111C 17.6722 34.0845 17.5975 34.111 17.5447 34.1155C 17.4832 34.1243 17.4217 34.1331 17.3557 34.1331C 17.2854 34.1331 17.2371 34.1199 17.2722 34.0183C 17.3557 33.8108 17.2942 33.6165 17.1404 33.5193L 16.8503 32.9409C 16.3053 32.6317 16.0064 33.0115 16.0064 33.0115C 15.9669 33.0115 15.9273 33.0203 15.8834 33.038C 15.813 33.0601 15.7032 33.0424 15.6372 33.0027C 15.5054 32.9188 15.3779 32.8746 15.2285 32.9585C 14.9824 32.8305 14.8285 32.9718 14.7143 33.1572C 14.6264 33.3074 14.5472 33.2235 14.4637 33.1705C 14.3978 33.1705 14.3275 33.1749 14.2615 33.1793C 13.9759 33.1793 13.8616 33.0601 13.8836 32.8084C 13.8836 32.7554 13.9011 32.698 13.9187 32.6538C 13.9627 32.5302 13.8967 32.4639 13.7957 32.433C 13.7473 32.4198 13.6946 32.4154 13.6374 32.411C 13.3737 32.3889 13.3737 32.3889 13.4528 32.1504C 13.4748 32.0886 13.488 32.0268 13.5056 31.965C 13.5188 31.8987 13.532 31.8369 13.5495 31.7663C 13.4484 31.7883 13.3518 31.806 13.2507 31.8281C 13.2375 31.8325 13.2287 31.8634 13.2155 31.8811C 13.1584 31.9561 13.1188 32.0577 13.0441 32.0886C 12.9562 32.1284 12.8375 32.1284 12.7364 32.1063C 12.5826 32.0754 12.4068 31.7795 12.4244 31.5896C 12.4288 31.5411 12.4332 31.4925 12.4376 31.4483L 12.8199 31.1966C 13.0661 31.0641 13.2507 30.8831 13.3869 30.6888C 13.4133 30.6756 13.4397 30.6535 13.4704 30.6314C 13.6023 30.5343 13.7561 30.6579 13.9012 30.6756C 14.1033 30.6932 14.1385 30.808 14.1517 30.9758C 14.1561 31.0376 14.1825 31.0995 14.2132 31.1569C 14.2352 31.1922 14.2791 31.2187 14.3143 31.2496C 14.3407 31.201 14.3802 31.1569 14.3758 31.1127C 14.367 30.9891 14.3539 30.8566 14.3187 30.733C 14.266 30.5607 14.3319 30.4459 14.4725 30.3532C 14.5692 30.2914 14.6527 30.1986 14.7582 30.1457C 14.8198 30.1103 14.8637 30.075 14.8945 30.0264L 15.0703 29.6599C 15.2549 29.4656 15.6548 29.1124 15.6636 29.0329C 15.6768 28.9004 15.7823 28.8386 15.8966 28.7944C 15.9932 28.7547 16.0899 28.7105 16.191 28.6708C 16.213 28.6619 16.2482 28.6796 16.2789 28.684C 16.2658 28.7105 16.2482 28.7326 16.2394 28.7635C 16.2306 28.79 16.2262 28.8209 16.2174 28.8518C 16.2526 28.843 16.2921 28.8386 16.3229 28.8297C 16.4372 28.7723 16.4855 28.6929 16.3888 28.5736C 16.3537 28.5339 16.3273 28.4853 16.3185 28.4367C 16.3053 28.3661 16.3053 28.291 16.3009 28.216C 16.2789 28.2248 16.257 28.2204 16.2438 28.2071C 16.3668 28.1983 16.4943 28.1939 16.6218 28.1939C 17.3118 28.1939 17.8348 27.4565 17.2942 27.4565C 17.1887 27.4565 17.0877 27.4609 16.9866 27.4697C 16.7888 27.2798 16.8195 27.0016 16.7097 26.7764C 16.6833 26.7146 16.6613 26.6837 16.6042 26.7411C 16.5866 26.7543 16.5778 26.7853 16.5646 26.7897C 16.4811 26.825 16.3537 26.9089 16.3229 26.878C 16.2526 26.8162 16.1427 26.7499 16.2042 26.591C 16.2526 26.4717 16.0284 26.2598 15.857 26.22C 15.6504 26.1715 15.6373 26.167 15.6021 26.3658C 15.5669 26.5556 15.4175 26.719 15.501 26.9398C 15.523 26.9928 15.4395 27.1429 15.3779 27.165C 15.1846 27.2312 15.1714 27.3549 15.1626 27.5271C 15.1626 27.6022 15.0747 27.6772 15.0263 27.7523C 14.956 27.6772 14.8813 27.6066 14.8241 27.5271C 14.8066 27.505 14.8285 27.4432 14.8373 27.4035C 14.8681 27.2842 14.8505 27.2003 14.7143 27.1606C 14.4813 27.0899 14.3627 26.8118 14.0814 26.8118C 14.0023 26.8118 13.9583 26.3569 14.0374 26.2774C 14.2484 26.0699 14.4769 25.8756 14.7802 25.7961C 14.8637 25.774 14.9516 25.7034 15.0087 25.6372C 15.1142 25.5179 15.5625 25.2795 15.668 25.2486C 15.6548 25.2221 15.646 25.1779 15.6241 25.1691C 15.5801 25.1514 15.5186 25.1382 15.4834 25.1558C 15.3999 25.2044 14.9472 24.807 14.934 24.7584C 14.8945 24.7717 14.8461 24.7717 14.8198 24.7982C 14.7802 24.8379 14.7231 24.9218 14.7362 24.935C 14.8461 25.0764 14.7582 25.1514 14.6527 25.2177C 14.5604 25.2706 14.4989 25.3678 14.3495 25.2706C 14.2044 25.1735 14.0154 25.1293 13.8396 25.1028C 13.7561 25.094 13.6506 25.1647 13.5759 25.2221C 13.4968 25.2795 13.4748 25.2795 13.466 25.1779C 13.466 25.1558 13.4045 25.1338 13.3694 25.1249C 13.2727 25.1073 13.2902 25.0896 13.1364 24.9615C 13.0397 24.8776 12.8859 24.8644 12.7584 24.8291C 12.4947 24.754 12.2442 24.8556 11.9937 24.8821C 11.8882 24.8909 11.8135 24.8776 11.7212 24.8511C 11.5717 24.807 11.4047 24.8158 11.2465 24.8026C 11.2245 24.7982 11.2069 24.7849 11.1849 24.7805C 11.1981 24.7584 11.2069 24.7143 11.2289 24.7054C 11.4794 24.5862 11.7256 24.4581 11.9849 24.3566C 12.9694 23.9768 13.989 23.8355 15.0351 23.9018C 15.2504 23.915 15.4614 23.9503 15.6724 23.9857C 15.7339 23.9945 15.7954 24.0122 15.857 24.0342C 15.8614 24.0342 16.1251 24.1005 16.1734 24.1005C 16.2174 24.1005 16.2569 24.1181 16.2921 24.1446C 16.3229 24.1623 16.5734 24.2064 16.7096 24.2904C 16.7756 24.3345 16.8722 24.3301 16.9514 24.3566C 17.0349 24.3919 17.1184 24.4405 17.1975 24.4846C 17.1316 24.542 17.0612 24.595 16.9909 24.6569C 17.0437 24.6745 17.1052 24.6966 17.1667 24.7187C 17.2063 24.7319 17.2546 24.7363 17.2854 24.7628C 17.3865 24.8511 17.5403 24.935 17.5711 25.041C 17.637 25.3369 17.9974 25.5047 17.9095 25.8579C 17.9007 25.8889 17.8787 25.9463 17.8612 25.9463C 17.7469 25.9463 17.7733 25.9993 17.7996 26.0699C 17.8348 26.1538 17.8787 26.2465 17.8787 26.3304C 17.8787 26.6042 18.0414 26.7544 18.2567 26.8648C 18.2787 26.878 18.3402 26.8559 18.3534 26.8383C 18.3886 26.7588 18.415 26.6793 18.4413 26.5954C 18.4941 26.4276 18.5644 26.3128 18.7797 26.3349C 18.9248 26.3481 19.0435 26.1494 19.2193 26.2554C 19.228 26.2642 19.2632 26.2421 19.2676 26.2289C 19.2764 26.2156 19.2588 26.1936 19.2456 26.1759C 19.2061 26.1185 19.1314 26.0611 19.127 25.9993C 19.1182 25.9242 19.1665 25.8447 19.1885 25.7652C 19.25 25.7917 19.3203 25.8138 19.3687 25.858C 19.8697 26.3128 20.2829 26.8471 20.6169 27.4388C 20.6345 27.4697 20.6477 27.5006 20.6609 27.5271C 20.8059 27.845 20.9554 28.163 21.096 28.4853C 21.1312 28.5648 21.1268 28.5957 21.0653 28.684C 20.9598 28.8386 20.8147 29.024 20.9554 29.2669C 21.0433 29.4126 20.9774 29.4656 20.7928 29.4789C 20.7576 29.4833 20.7049 29.5274 20.7049 29.5539C 20.7005 29.682 20.6917 29.7394 20.7136 29.8674C 20.7268 29.9293 21.0565 29.7615 21.1004 29.6334C 21.118 29.576 21.2015 29.523 21.263 29.5142C 21.2982 29.5054 21.3817 29.5716 21.3861 29.6157C 21.4344 29.9646 21.5443 30.3311 21.518 30.755L 21.5179 30.755ZM 14.4638 22.7227L 15.0967 23.2835L 15.8131 22.8375L 16.3449 23.4954L 17.1228 23.1731L 17.5404 23.9105L 18.3623 23.7206L 18.6523 24.5155L 19.4918 24.4625L 19.6456 25.2927L 20.4851 25.381L 20.5027 26.2288L 21.3158 26.454L 21.1927 27.293L 21.9575 27.6507L 21.7026 28.4588L 22.397 28.9357L 22.0103 29.6908L 22.6212 30.2781L 22.1157 30.9581L 22.6212 31.6381L 22.0103 32.2254L 22.397 32.9805L 21.7026 33.4574L 21.9575 34.2655L 21.1927 34.6232L 21.3158 35.4622L 20.5027 35.6874L 20.4851 36.5353L 19.6456 36.6236L 19.4918 37.4537L 18.6523 37.4008L 18.3623 38.1956L 17.5404 38.0057L 17.1228 38.7431L 16.3449 38.4208L 15.8131 39.0787L 15.0967 38.5974L 14.4638 39.1582L 13.8309 38.5974L 13.1144 39.0434L 12.5826 38.3855L 11.8047 38.7078L 11.3871 37.9704L 10.5652 38.1603L 10.2752 37.3654L 9.4357 37.4184L 9.28187 36.5882L 8.4424 36.4999L 8.42482 35.6521L 7.61171 35.4269L 7.73478 34.5879L 6.97002 34.2302L 7.22493 33.4221L 6.5305 32.9452L 6.91727 32.1901L 6.31074 31.6028L 6.81619 30.9228L 6.31074 30.2428L 6.91727 29.6555L 6.5305 28.9004L 7.22493 28.4234L 6.97002 27.6154L 7.73478 27.2577L 7.61171 26.4187L 8.42482 26.1935L 8.4424 25.3456L 9.28187 25.2573L 9.4357 24.4272L 10.2752 24.4801L 10.5652 23.6853L 11.3871 23.8752L 11.8047 23.1378L 12.5826 23.4601L 13.1144 22.8022L 13.8309 23.2481L 14.4638 22.7227Z"/>
<path id="path1_fill" d="M -3.43371e-07 2.74222L 1.92503 1.51793e-07L 3.32271 3.04687L -3.43371e-07 2.74222Z"/>
<path id="path2_fill" d="M -1.16746e-06 4.27001L 3.00192 9.79752e-07L 5.18192 4.74694L -1.16746e-06 4.27001Z"/>
<path id="path3_fill" d="M 0 3.30303L 2.32503 -9.24555e-07L 4.01277 3.67393L 0 3.30303Z"/>
<path id="path4_fill" d="M 0.835081 5.15763L 1.64544e-06 5.17475e-07L 10.3155 3.95654L 0.835081 5.15763Z"/>
<path id="path5_fill" d="M 9.43204 5.18408L 8.77275 -1.40753e-06L -1.4037e-06 6.73403L 9.43204 5.18408Z"/>
<path id="path6_fill" d="M 2.86567 5.14436L -2.0877e-06 3.71368L 0.465884 0.534313L 3.62162 -9.76992e-07L 5.10278 2.84374L 2.86567 5.14436Z"/>
</defs>
</svg>
