<svg width="84" height="82" viewBox="0 0 84 82" version="1.1" xmlns="http://www.w3.org/2000/svg" xmlns:xlink="http://www.w3.org/1999/xlink">
<title>special-project</title>
<desc>Created using Figma</desc>
<g id="Canvas" transform="translate(-8509 -137)">
<g id="special-project">
<g id="Vector">
<use xlink:href="#path0_fill" transform="translate(8509 137)" fill="#FFFFFF"/>
</g>
</g>
</g>
<defs>
<path id="path0_fill" d="M 18.9162 0.599127C 15.8057 1.47996 11.6571 2.8147 10.2075 5.23041C 9.44071 6.52501 10.3079 8.46024 11.7912 8.75391C 13.75 9.15096 18.019 10.4589 21.2672 12.2273C 23.1222 13.3551 25.4258 14.6331 25.6468 16.7351L 21.515 23.8555C 20.0485 26.3846 16.3051 29.5411 13.3017 34.7198C 9.88972 40.609 3.68858 51.4267 0.289927 57.2856C -0.32951 58.3566 0.082331 59.8915 1.15712 60.5121L 10.087 65.6371C 11.1618 66.2544 12.7054 65.844 13.3281 64.7763L 26.4136 42.1841C 29.4137 37.0056 30.301 32.3208 31.7809 29.7686C 33.3111 27.0558 34.9852 24.3198 36.2843 22.0342C 36.3948 22.0042 37.3491 21.8941 39.5991 23.192C 40.5835 24.2998 41.2398 25.2307 42.0233 26.125C 43.011 27.2461 45.1038 27.0425 45.8571 25.7546L 52.413 14.4196C 53.1597 13.1283 52.2992 11.2198 50.8293 10.9228C 48.8705 10.5224 47.4274 10.479 47.0189 10.2588C 42.3983 7.62952 37.7813 4.95688 33.1672 2.30089C 30.7765 0.922836 28.2619 0.258881 25.821 0.0586609C 23.504 -0.12152 20.9861 0.128731 18.9202 0.599195L 18.9162 0.599127ZM 25.3717 4.76326C 27.2233 4.91008 29.0849 5.40723 30.7892 6.38817L 41.6743 12.6711L 38.7814 17.6728C 37.3919 17.249 36.1664 17.1889 35.0715 17.4759C 34.1675 17.7128 33.471 18.2166 32.9688 18.7071L 30.3706 17.2289C 30.5614 12.7111 26.8515 9.88162 23.5435 8.06358C 21.8358 7.13603 20.0546 6.42526 18.3503 5.79804C 20.7777 5.01059 23.0613 4.64686 25.375 4.76371L 25.3717 4.76326ZM 28.3416 21.5163L 30.3941 22.6975L 27.6719 27.4021C 25.5056 31.1392 24.8526 35.4201 22.3046 39.8176L 10.4046 60.365L 5.60648 57.6055C 9.1289 51.5128 14.3418 42.4139 17.4328 37.0821C 19.964 32.7178 23.4396 29.9784 25.6193 26.2178L 28.3416 21.5163ZM 33.883 31.5427C 32.7244 31.6628 31.7501 32.7472 31.7568 33.9083L 31.7568 44.9461C 31.7568 46.1839 32.8885 47.3117 34.1307 47.3117L 54.7129 47.3117C 55.9551 47.3117 57.0868 46.1839 57.0868 44.9461L 57.0868 33.9083C 57.0868 32.6705 55.9551 31.5427 54.7129 31.5427L 33.883 31.5427ZM 60.7962 31.5427C 59.6376 31.6628 58.6633 32.7472 58.67 33.9083L 58.67 44.9461C 58.67 46.1839 59.8017 47.3117 61.0439 47.3117L 81.6261 47.3117C 82.8683 47.3117 84 46.1839 84 44.9461L 84 33.9083C 84 32.6705 82.8683 31.5427 81.6261 31.5427L 60.7962 31.5427ZM 27.5477 48.8868C 26.3892 49.0069 25.4148 50.0914 25.4215 51.2525L 25.4215 62.2902C 25.4215 63.5281 26.5532 64.6559 27.7954 64.6559L 48.3776 64.6559C 49.6198 64.6559 50.7515 63.5281 50.7515 62.2902L 50.7515 51.2525C 50.7515 50.0146 49.6198 48.8868 48.3776 48.8868L 27.5477 48.8868ZM 54.4609 48.8868C 53.3024 49.0069 52.328 50.0914 52.3347 51.2525L 52.3347 62.2902C 52.3347 63.5281 53.4664 64.6559 54.7086 64.6559L 75.2908 64.6559C 76.533 64.6559 77.6647 63.5281 77.6647 62.2902L 77.6647 51.2525C 77.6647 50.0146 76.533 48.8868 75.2908 48.8868L 54.4609 48.8868ZM 33.8787 66.231C 32.7202 66.3511 31.7458 67.4355 31.7525 68.5966L 31.7525 79.6343C 31.7525 80.8722 32.8842 82 34.1264 82L 54.7086 82C 55.9508 82 57.0825 80.8722 57.0825 79.6343L 57.0825 68.5966C 57.0825 67.3587 55.9508 66.231 54.7086 66.231L 33.8787 66.231ZM 60.7919 66.231C 59.6334 66.3511 58.659 67.4355 58.6657 68.5966L 58.6657 79.6343C 58.6657 80.8722 59.7974 82 61.0396 82L 81.6218 82C 82.864 82 83.9957 80.8722 83.9957 79.6343L 83.9957 68.5966C 83.9957 67.3587 82.864 66.231 81.6218 66.231L 60.7919 66.231Z"/>
</defs>
</svg>
